<svg xmlns="http://www.w3.org/2000/svg" xmlns:xlink="http://www.w3.org/1999/xlink" viewBox="0 0 425.28 78.3"><defs><style>.cls-1{fill:#fff;}.cls-2,.cls-3,.cls-4,.cls-5,.cls-6,.cls-7{fill-rule:evenodd;}.cls-2{fill:url(#linear-gradient);}.cls-3{fill:url(#linear-gradient-2);}.cls-4{fill:url(#linear-gradient-3);}.cls-5{fill:url(#linear-gradient-4);}.cls-6{fill:url(#linear-gradient-5);}.cls-7{fill:url(#linear-gradient-6);}</style><linearGradient id="linear-gradient" x1="22.73" y1="69.42" x2="58.05" y2="69.42" gradientUnits="userSpaceOnUse"><stop offset="0" stop-color="#f5de00"></stop><stop offset="0.19" stop-color="#bfb925"></stop><stop offset="0.46" stop-color="#8d982e"></stop><stop offset="0.61" stop-color="#5c7f36"></stop><stop offset="1" stop-color="#246938"></stop></linearGradient><linearGradient id="linear-gradient-2" x1="33.79" y1="14.23" x2="86.63" y2="14.23" xlink:href="#linear-gradient"></linearGradient><linearGradient id="linear-gradient-3" x1="21.77" y1="25.29" x2="88.66" y2="25.29" xlink:href="#linear-gradient"></linearGradient><linearGradient id="linear-gradient-4" x1="16" y1="37.96" x2="88.44" y2="37.96" xlink:href="#linear-gradient"></linearGradient><linearGradient id="linear-gradient-5" x1="15.1" y1="51.07" x2="82.62" y2="51.07" xlink:href="#linear-gradient"></linearGradient><linearGradient id="linear-gradient-6" x1="17.75" y1="62.14" x2="71.53" y2="62.14" xlink:href="#linear-gradient"></linearGradient></defs><g id="&#x421;&#x43B;&#x43E;&#x439;_2" data-name="&#x421;&#x43B;&#x43E;&#x439; 2"><g id="&#x421;&#x43B;&#x43E;&#x439;_1-2" data-name="&#x421;&#x43B;&#x43E;&#x439; 1"><rect class="cls-1" x="119.76" width="2.69" height="78.3"></rect><path class="cls-1" d="M154.48,34.3H148a21.41,21.41,0,0,0,1.08-4.92l.93-10.12h4.43Zm4,8.61h5.41V34.3h-2.56v-20H144.11l-1.53,16c-.53,2.91-1.45,3.8-3.79,4h-1.21v8.61H143V40.08H158.5Zm10.38-2.85h16.41V34.21h-9.86V29.68h8.76V23.84h-8.76V20.19H185V14.31H168.88Zm38.07,0h6.88V14.31H196.58l-1.53,16c-.61,3.37-1.74,4-5,4v5.72H193c4.9,0,7.83-3.46,8.61-10.68l.93-10.12H207Zm30.89-12.84c0,9.34-12.91,9.34-12.91,0S237.84,18,237.84,27.22Zm6.73,0c0-17.8-26.41-17.8-26.41,0S244.57,45.06,244.57,27.22Zm16.59,7H255.9V29.83h5.23C263.78,29.83,263.81,34.21,261.16,34.21Zm-1.1-9.86H255.9V20.19H260C262.67,20.19,262.67,24.35,260.06,24.35Zm6.47,2.32a6.13,6.13,0,0,0,2-4.45,7.89,7.89,0,0,0-8-7.91h-11V40.06h12.07c5.26,0,8-3.64,8-8.13A5.57,5.57,0,0,0,266.53,26.67Zm26.34.55c0,9.34-12.91,9.34-12.91,0S292.87,18,292.87,27.22Zm6.73,0c0-17.8-26.41-17.8-26.41,0S299.6,45.06,299.6,27.22Zm23.65-20.6c-1.24-.15-2.5-.29-3.79-.37-.22,1.55-1.21,2-2.71,2s-2.43-.67-2.54-2c-1.29.08-2.54.22-3.79.37.11,4.12,2.42,6.29,6.4,6.29S323.11,10.74,323.25,6.62Zm-3.12,33.44h6.8V14.2h-2.39l-13,12.72V14.31h-6.73V40.1h2.35l13-12.7Zm43.2.09h6.75V14.32h-6.49l-7.17,15.37-7.14-15.37h-6.47V40.15h6.72V28.67l5.34,11.48h2.81l5.65-11.48Zm28-.09h6.8V14.2h-4.38L382.71,28V14.31H376V40.1h4.85l10.49-12.71ZM416,27.55h-4.71V20.19c1.51,0,3.17,0,4.71,0C419.83,20.23,419.61,27.55,416,27.55Zm0-13.24H404.71V40.06h6.58V33.47H416C428.36,33.47,428.36,14.34,416,14.31Z"></path><path class="cls-1" d="M13.58,34.3c-6.09-.91-12.21-.93-12.76.58-.71,2,4.36,5.81,13,10.34a36.28,36.28,0,0,1-.54-5.91c0-1.3.21-4.59.26-5"></path><path class="cls-1" d="M16,24.22c.41-.91,1.12-2.58,2-4.24h0l.69-1.2C9.51,16.37.8,16.52.07,18.53c-.78,2.18,4.72,6.39,14.17,11.37A40,40,0,0,1,16,24.22"></path><path class="cls-1" d="M90.64,44.59A47.39,47.39,0,0,1,89.44,50c-.2.66-.41,1.31-.65,2A39.46,39.46,0,0,1,87,56.09c10.47,2.18,17.38,2.44,18.17.25.72-2-5-7.33-14.57-11.75"></path><path class="cls-1" d="M72.59,71.66c-.29.19-2.47,1.37-3.75,2a37.82,37.82,0,0,1-4.62,1.75c7,1.54,11.74,1.79,12.25.36.32-.88-1.33-2.34-3.88-4.06"></path><path class="cls-1" d="M16.15,51.38h0l-.1,0c-2.94-.27-4.77,0-5.08.84-.5,1.38,3.07,4.07,9.16,7.25a37.49,37.49,0,0,1-2.38-4.18,36.49,36.49,0,0,1-1.64-3.87"></path><path class="cls-1" d="M84.86,59.91A32.45,32.45,0,0,1,82,63.85a39,39,0,0,1-4.29,4.33c9.57,2,15.92,2.31,16.64.33.54-1.51-3.86-5.76-9.46-8.6"></path><path class="cls-1" d="M90.63,41.77c7.65,1.39,12.6,1.39,13.22-.34.74-2.06-4.82-6.16-14.22-11a40.23,40.23,0,0,1,.93,5.78,39.07,39.07,0,0,1,.07,5.52"></path><path class="cls-1" d="M20.33,16.48a41,41,0,0,1,3.58-4.28,38.09,38.09,0,0,1,4.34-3.8C17.94,6.11,11.1,5.74,10.36,7.8c-.62,1.73,3.19,4.88,10,8.68"></path><path class="cls-1" d="M87.14,22.22c.52,1,1,2.11,1.42,3.2,3.56.43,5.79.23,6.14-.73.55-1.53-3.83-4.65-11.11-8.27h0a39.16,39.16,0,0,1,3.55,5.8"></path><path class="cls-1" d="M33,5.42c1-.56,2.08-1.09,3.15-1.56a39.26,39.26,0,0,1,6.42-2.21C34.62-.19,29.26-.58,28.71,1,28.36,1.91,30,3.49,33,5.42"></path><polygon class="cls-1" points="90.48 45.71 90.47 45.71 90.45 45.83 90.48 45.71"></polygon><path class="cls-2" d="M44.56,75.7c5.81,1,13.49,0,13.49,0-4.94-1.28-10.67-3.06-16.72-5.23a185.75,185.75,0,0,1-18.6-7.76A36.11,36.11,0,0,0,44.56,75.7Z"></path><path class="cls-3" d="M33.79,7.09s3,1.87,8.4,4.47a165.24,165.24,0,0,0,18,7.43c18.93,6.55,26.42,7.11,26.42,7.11A37.3,37.3,0,0,0,64.27,4.51,35.78,35.78,0,0,0,52,2.36,37.28,37.28,0,0,0,33.79,7.09"></path><path class="cls-4" d="M25.5,13.2a43.92,43.92,0,0,0-3.73,4.4A217.83,217.83,0,0,0,52.51,31.13c26.42,9.49,36.08,10.51,36.08,10.51a34.46,34.46,0,0,0-.15-6.13,36.54,36.54,0,0,0-1.23-6.24c-2.2.14-12.19-2-18.64-4a229.33,229.33,0,0,1-24-8.89C35.12,12.31,30.73,9,30.73,9A27.89,27.89,0,0,0,25.5,13.2Z"></path><path class="cls-5" d="M17.57,25.19A31.5,31.5,0,0,0,16,30.35,306.3,306.3,0,0,0,48.87,44.48c27.75,9.76,36.31,10.76,36.31,10.76a45.79,45.79,0,0,0,2.16-5.38c.61-2,1.1-4.49,1.1-4.49-7.16-1-20.24-4.86-36.52-10.45A240.6,240.6,0,0,1,19.77,20.67,37.59,37.59,0,0,0,17.57,25.19Z"></path><path class="cls-6" d="M15.27,35.42a44,44,0,0,0-.14,5.08,29.2,29.2,0,0,0,.5,4.41,255.33,255.33,0,0,0,29,12.41,262.73,262.73,0,0,0,31.67,9.41A36.75,36.75,0,0,0,80,63.08a27.78,27.78,0,0,0,2.65-3.44S59.13,53.27,48.47,49.52a259.82,259.82,0,0,1-33.19-14.1Z"></path><path class="cls-7" d="M17.75,50.73s1.12,2.78,1.87,4.29c.64,1.29,2,3.4,2,3.4a161.55,161.55,0,0,0,19.6,8.43,172.78,172.78,0,0,0,22.26,6.71s1.85-.57,3.63-1.33A30.58,30.58,0,0,0,71.53,70c-.55-.08-20.25-6-29.69-9.59C32,56.69,17.75,50.73,17.75,50.73"></path><path class="cls-1" d="M343.68,50.78a3.79,3.79,0,0,1-1,2.48,3.26,3.26,0,0,1-2.44.92,3.3,3.3,0,0,1-2.45-.92,3.76,3.76,0,0,1-1-2.48l1.1-.16a3.39,3.39,0,0,0,.77,1.77,2.14,2.14,0,0,0,1.61.59,2.06,2.06,0,0,0,1.59-.59,3.47,3.47,0,0,0,.77-1.77Zm.78,19.48V58.68c0-.22,0-.41,0-.59a5.83,5.83,0,0,1,0-.59h-.05l-.27.54-.28.52c-.1.19-.2.37-.31.55l-7.28,11.15h-1.63V55.84h1.45V66.57c0,.22,0,.43,0,.64s0,.42,0,.59a6.13,6.13,0,0,0,0,.62h.06l.26-.54c.09-.16.19-.33.28-.52a4.53,4.53,0,0,1,.34-.55l7.14-11h1.74V70.26Zm-15.44,0V58.68c0-.22,0-.41,0-.59a5.83,5.83,0,0,1,0-.59H329l-.27.54-.28.52c-.1.19-.2.37-.31.55l-7.28,11.15h-1.63V55.84h1.45V66.57c0,.22,0,.43,0,.64s0,.42,0,.59a6.13,6.13,0,0,0,0,.62h.06l.26-.54c.09-.16.19-.33.28-.52a4.53,4.53,0,0,1,.34-.55l7.14-11h1.74V70.26Zm-15.58,0V63.5h-7.09v6.76h-1.57V55.84h1.57v6.42h7.09V55.84H315V70.26ZM299,62.45c-.85,0-1.72.12-2.61.2a10.42,10.42,0,0,0-2.39.48,4.21,4.21,0,0,0-1.75,1.09,3.05,3.05,0,0,0,.33,4.21,4.85,4.85,0,0,0,3.13.85,11.07,11.07,0,0,0,1.89-.17,5.56,5.56,0,0,0,1.4-.37Zm1.53,7.09a4.87,4.87,0,0,1-.91.39,10.6,10.6,0,0,1-1.18.31,13.42,13.42,0,0,1-1.34.21,10.54,10.54,0,0,1-1.36.08,6.69,6.69,0,0,1-4.27-1.16,3.83,3.83,0,0,1-1.43-3.14,3.75,3.75,0,0,1,.79-2.52,5.24,5.24,0,0,1,2.06-1.46,10.87,10.87,0,0,1,2.87-.72c1.07-.13,2.15-.23,3.24-.28V60a3.63,3.63,0,0,0-.29-1.53,2.62,2.62,0,0,0-.79-1,3.14,3.14,0,0,0-1.19-.51,7.2,7.2,0,0,0-1.5-.15,8.5,8.5,0,0,0-2.09.27,7.7,7.7,0,0,0-1.76.64l-.49-1.17c.27-.13.58-.25.91-.37s.7-.22,1.09-.32a9.87,9.87,0,0,1,2.45-.31,8.07,8.07,0,0,1,2.08.25,4.27,4.27,0,0,1,1.65.77A3.72,3.72,0,0,1,300.16,58a5.11,5.11,0,0,1,.39,2.1ZM285,70.26V57.15h-7.22V70.26h-1.58V55.84h10.38V70.26Zm-13.88,0-1.48-11.21c0-.21-.06-.42-.08-.64s0-.42,0-.62,0-.42,0-.64h-.05c0,.2-.08.4-.13.62a5.83,5.83,0,0,1-.16.63c-.07.22-.15.43-.22.63L265,70.26h-1.34L259.69,59a4.29,4.29,0,0,1-.23-.63q-.09-.33-.15-.63c-.05-.22-.09-.42-.13-.62h-.05l-.06.64c0,.2,0,.41,0,.62a4.48,4.48,0,0,1-.07.64l-1.47,11.21H256l2-14.42h2l3.8,11c.07.19.14.39.2.6a5.41,5.41,0,0,1,.15.57c.05.2.1.4.13.59h.06c0-.19.08-.39.13-.59s.08-.37.13-.57.12-.41.19-.6l3.83-11h1.95l2,14.42ZM251.53,63a10.63,10.63,0,0,0-.27-2.45,6.18,6.18,0,0,0-.8-2,4.09,4.09,0,0,0-1.36-1.29,3.84,3.84,0,0,0-1.94-.46,3.89,3.89,0,0,0-1.94.46,4.15,4.15,0,0,0-1.35,1.29,6.18,6.18,0,0,0-.8,2,11.3,11.3,0,0,0,0,4.91,6.22,6.22,0,0,0,.8,1.94,4.05,4.05,0,0,0,1.35,1.29,3.89,3.89,0,0,0,1.94.46,3.84,3.84,0,0,0,1.94-.46,4,4,0,0,0,1.36-1.29,6.22,6.22,0,0,0,.8-1.94A10.54,10.54,0,0,0,251.53,63Zm1.58,0a11.18,11.18,0,0,1-.38,3,7,7,0,0,1-1.12,2.37A5.45,5.45,0,0,1,249.75,70a6.15,6.15,0,0,1-5.17,0,5.45,5.45,0,0,1-1.86-1.58A7,7,0,0,1,241.6,66a11.8,11.8,0,0,1,0-5.94,7,7,0,0,1,1.12-2.37,5.19,5.19,0,0,1,1.86-1.56,6.15,6.15,0,0,1,5.17,0,5.19,5.19,0,0,1,1.86,1.56,7,7,0,0,1,1.12,2.37A11.18,11.18,0,0,1,253.11,63Zm-15.53,7.22-2.83-4.46A6.93,6.93,0,0,0,233,64a4.25,4.25,0,0,0-2.53-.79v7.09h-1.55V55.84h1.55v6.69h.05l6.72-6.69h2l-6.87,6.58a5.75,5.75,0,0,1,2.27,1.17,8.87,8.87,0,0,1,1.66,1.94l3.08,4.73Zm-22-7.81c-.85,0-1.72.12-2.61.2a10.42,10.42,0,0,0-2.39.48,4.21,4.21,0,0,0-1.75,1.09,3.05,3.05,0,0,0,.33,4.21,4.85,4.85,0,0,0,3.13.85,11.07,11.07,0,0,0,1.89-.17,5.56,5.56,0,0,0,1.4-.37Zm1.53,7.09a4.6,4.6,0,0,1-.91.39,10.6,10.6,0,0,1-1.18.31,13.42,13.42,0,0,1-1.34.21,10.54,10.54,0,0,1-1.36.08A6.69,6.69,0,0,1,208,69.37a3.86,3.86,0,0,1-1.43-3.14,3.75,3.75,0,0,1,.79-2.52,5.24,5.24,0,0,1,2.06-1.46,11,11,0,0,1,2.87-.72c1.08-.13,2.15-.23,3.24-.28V60a3.63,3.63,0,0,0-.29-1.53,2.62,2.62,0,0,0-.79-1,3.14,3.14,0,0,0-1.19-.51,7.13,7.13,0,0,0-1.5-.15,8.57,8.57,0,0,0-2.09.27,7.7,7.7,0,0,0-1.76.64l-.48-1.17a8.15,8.15,0,0,1,.91-.37c.33-.11.69-.22,1.08-.32a9.87,9.87,0,0,1,2.45-.31,8.07,8.07,0,0,1,2.08.25,4.27,4.27,0,0,1,1.65.77A3.63,3.63,0,0,1,216.7,58a5.11,5.11,0,0,1,.39,2.1Zm-15.58.72V57.15h-7.22V70.26h-1.58V55.84h10.38V70.26Zm-14.61,0V57.15h-7.22V70.26H178.1V55.84h10.38V70.26ZM174.78,55.84A35.38,35.38,0,0,1,173,63.05a62.81,62.81,0,0,1-2.89,6.73L167,76h-1.69l2.94-5.76q-1.81-3.42-3.3-7a34.13,34.13,0,0,1-2.13-7.41h1.63a35.2,35.2,0,0,0,1.78,6.56q1.23,3.21,2.77,6.37h.06a60.3,60.3,0,0,0,2.5-6.25,38.29,38.29,0,0,0,1.56-6.68Zm-16.05,7a8.06,8.06,0,0,0-.34-2.43,5.32,5.32,0,0,0-1-1.89,4.49,4.49,0,0,0-1.6-1.22,5.33,5.33,0,0,0-2.18-.42,7.81,7.81,0,0,0-1.62.16,4,4,0,0,0-1.17.37V68.71A8.68,8.68,0,0,0,152,69a8.46,8.46,0,0,0,1.55.15,4.9,4.9,0,0,0,2.22-.48,4.46,4.46,0,0,0,1.62-1.33,5.72,5.72,0,0,0,1-2A8.66,8.66,0,0,0,158.73,62.85Zm1.58,0a10.12,10.12,0,0,1-.44,3.05,6.94,6.94,0,0,1-1.3,2.4,6.19,6.19,0,0,1-2.09,1.58,6.7,6.7,0,0,1-2.84.57,9.13,9.13,0,0,1-1.61-.13,6.91,6.91,0,0,1-1.2-.3v6h-1.57V56.57a8.08,8.08,0,0,1,1.87-.69,10.11,10.11,0,0,1,2.46-.31,7.28,7.28,0,0,1,2.85.53,5.64,5.64,0,0,1,2.1,1.48,6.58,6.58,0,0,1,1.31,2.3A9,9,0,0,1,160.31,62.85ZM140,57.15V70.26h-1.55V55.84h7.92v1.31Z"></path></g></g></svg>